<svg xmlns="http://www.w3.org/2000/svg" version="1.1" xmlns:xlink="http://www.w3.org/1999/xlink" xmlns:svgjs="http://svgjs.com/svgjs" width="512" height="512" x="0" y="0" viewBox="0 0 512 512" style="enable-background:new 0 0 512 512; height: 60px; width: auto;" xml:space="preserve">
                                <g><path d="M248 448h16v16h-16zM56 192h29.438l53.914 38.512a8 8 0 0 0 12.492-8.082L145.758 192H200a40.047 40.047 0 0 0 40-40V56a40.047 40.047 0 0 0-40-40H56a40.047 40.047 0 0 0-40 40v96a40.047 40.047 0 0 0 40 40ZM32 56a24.027 24.027 0 0 1 24-24h144a24.027 24.027 0 0 1 24 24v96a24.027 24.027 0 0 1-24 24h-64a8 8 0 0 0-7.844 9.57l4.032 20.16-39.54-28.242A8 8 0 0 0 88 176H56a24.027 24.027 0 0 1-24-24Z" fill="#000000" data-original="#000000"></path><path d="M72 96v48a8 8 0 0 0 8 8h64a8 8 0 0 0 8-8v-3.055l20.422 10.211A8 8 0 0 0 184 144V96a8 8 0 0 0-11.578-7.156L152 99.055V96c0-.133-.069-.244-.076-.375A27.962 27.962 0 1 0 112 56.466a27.962 27.962 0 1 0-39.924 39.159c-.007.131-.076.242-.076.375Zm64 40H88v-32h48Zm32-27.055v22.11l-16-8v-6.11ZM132 64a12 12 0 1 1-12 12 12.013 12.013 0 0 1 12-12Zm-40 0a12 12 0 1 1-12 12 12.013 12.013 0 0 1 12-12ZM456 80h-72.809A40.067 40.067 0 0 0 344 48h-88v16h88a23.96 23.96 0 0 1 22.526 16H296a40.047 40.047 0 0 0-40 40v96a40.047 40.047 0 0 0 40 40h62.242l-6.086 30.43a8 8 0 0 0 12.492 8.082l3.352-2.394v32.57l-22.344-22.344a36.283 36.283 0 1 0-51.312 51.312L341.688 401a75.171 75.171 0 0 0-7.513 15H128v40a40.047 40.047 0 0 0 40 40h280a8 8 0 0 0 8-8V336.32a87.6 87.6 0 0 0-21.422-57.527l-17.022-22.074 1.006-.719H456a40.047 40.047 0 0 0 40-40v-96a40.047 40.047 0 0 0-40-40ZM296 96h160a24.027 24.027 0 0 1 24 24v81.052l-35.562-23.708a8.01 8.01 0 0 0-8.876 0L392.273 206.2 332.8 161.6a7.992 7.992 0 0 0-9.594 0L272 200v-80a24.027 24.027 0 0 1 24-24ZM144 456v-24h185.716a77.928 77.928 0 0 0 7.806 48H168a24.027 24.027 0 0 1-24-24Zm278.219-167.059A72 72 0 0 1 440 336.32V480h-83.961a61.984 61.984 0 0 1-8.687-53.727 60.021 60.021 0 0 1 7.687-16.453l3.6-5.359a8 8 0 0 0-.985-10.117l-52-52a20.284 20.284 0 0 1 28.688-28.684l68 68 11.312-11.312L384 340.688v-60l20.528-14.663ZM456 240h-40a8 8 0 0 0-4.648 1.488l-39.54 28.242 4.032-20.16A8 8 0 0 0 368 240h-72a23.973 23.973 0 0 1-23.625-20.285L328 178l59.2 44.4a7.991 7.991 0 0 0 9.235.258L440 193.613l39.6 26.4A23.986 23.986 0 0 1 456 240Z" fill="#000000" data-original="#000000"></path><path d="M392 176a32 32 0 1 0-32-32 32.034 32.034 0 0 0 32 32Zm0-48a16 16 0 1 1-16 16 16.019 16.019 0 0 1 16-16ZM56 400h128a40.047 40.047 0 0 0 40-40v-48a40.047 40.047 0 0 0-40-40h-5.75l5.508-22.059a8 8 0 0 0-11.727-8.886L117.875 272H56a40.047 40.047 0 0 0-40 40v48a40.047 40.047 0 0 0 40 40Zm-24-88a24.027 24.027 0 0 1 24-24h64a8 8 0 0 0 3.969-1.055l39.726-22.7-3.453 13.813A8 8 0 0 0 168 288h16a24.027 24.027 0 0 1 24 24v48a24.027 24.027 0 0 1-24 24H56a24.027 24.027 0 0 1-24-24Z" fill="#000000" data-original="#000000"></path><path d="M48 312h88v16H48zM152 312h40v16h-40zM48 344h144v16H48z" fill="#000000" data-original="#000000"></path></g>
                            </svg>