<svg version="1.2" xmlns="http://www.w3.org/2000/svg" viewBox="0 0 810 811" width="810" height="811">
	<title>icono-svg</title>
	<style>
		.s0 { fill: #027e9d } 
	</style>
	<g id="Layer">
		<g id="Layer">
			<g id="Layer">
				<path id="Layer" fill-rule="evenodd" class="s0" d="m792.2 57.3c-0.7 3.8-2.3 4.6-5.4 2.3-2.3-2.3-3.8-1.6-6.2 3.9-3.8 6.9-21.6 17-24 13.1-1.5-1.5-6.9 0.8-13.9 5.4-17.8 11.6-33.3 10.1-21.7-2.3 3.1-3.1 5.5-7 5.5-8.5 0-1.6 2.3-3.1 5.4-3.9 3.1-0.8 5.4-2.3 5.4-3.8 0-3.9-19.3 6.1-22.4 10.8-0.8 1.5-2.4 2.3-3.9 0.8-1.6-0.8 2.3-5.5 7-9.3 23.2-17.8 23.9-17.1-9.3-16.3-17.1 0.8-31.8 0-32.5-0.8-1.6-1.5-3.9-0.7-5.5 0-1.5 1.6-21.6 3.1-44.8 3.9-23.2 0.8-48 2.3-55.7 3.1-7 0.8-31.8 2.3-54.2 3.1-21.7 0.8-41 1.6-41.8 2.3 0 0.8 0 3.1 1.5 4.7 3.9 4.6 11.7 26.3 13.2 37.9 0.8 4.6 2.3 10.1 3.1 10.8 3.1 5.4 3.9 16.3 3.9 55.7 0.7 34.9-2.4 68.1-7.8 82.8-0.7 1.6-1.5 9.3-2.3 16.3-1.5 15.5-11.6 68.9-14.7 79.7-1.5 4.6-3.1 11.6-3.9 14.7-1.5 8.5-3.8 17-6.9 23.2-0.8 3.1-3.9 13.2-7 23.2-2.3 9.3-6.2 22.5-9.3 28.7-2.3 5.4-10 24.7-17 41.7-17.8 41.8-49.5 106.8-60.4 123.1-5.4 6.9-9.3 13.9-9.3 15.5 0 2.3-4.6 7.7-10 13.9-5.4 6.2-10.8 15.5-13.2 20.1-2.3 5.4-4.6 9.3-6.2 9.3-3 0-11.6 13.1-12.3 18.6 0 1.5-6.2 10-13.2 18.5-7 8.5-13.1 16.3-13.1 17.1 0 1.5-1.6 3-3.9 3-2.3 0-5.4 1.6-6.2 4.7 0 2.3-5.4 7.7-10.1 11.6-5.4 3.1-10 8.5-10.8 10.8-1.5 4.7-24 21.7-27.9 21.7-2.3 0-3.8 1.5-5.4 3.9-2.3 3.8-27.1 17.8-32.5 17.8-2.3 0-3.1 0.7-3.1 2.3 0 1.5-1.5 3.1-3.1 3.1-1.5 0-6.9 1.5-11.6 3.9-18.5 7.7-54.9 13.9-68.1 10.8-11.6-3.1-22.4-7.8-30.9-13.9-4.7-3.9-9.3-6.2-10.1-6.2-3.1 0-23.2-14.7-23.2-16.3 0-1.5-3.9-6.9-9.3-12.4-5.4-6.2-9.3-12.3-9.3-15.4 0-2.4-1.5-5.5-2.3-6.2-4.6-2.3-6.2-38-2.3-51.1 3.9-13.2 22.4-45.7 37.1-65.8 4.7-6.2 12.4-17 18.6-25.5 15.5-22.5 55.7-67.3 85.1-94.4 14-12.4 15.5-13.9 15.5-7.8 0 2.4-1.5 4.7-3.1 4.7-6.2 0-69.6 68.1-68.1 72.7 0 1.6-1.5 4.7-4.6 7-3.1 2.3-5.5 6.2-5.5 7.7 0 0.8-2.3 4.7-5.4 7.8-3.1 3.1-5.4 7.7-6.2 11.6-1.5 5.4-1.5 4.6 3.1-0.8 10.1-12.4 31-36.4 42.6-48.8 7-6.9 12.4-13.1 12.4-13.1 0-3.1 62.7-58.8 83.6-74.3 5.4-3.9 12.3-8.5 16.2-9.3 4.6-1.5 5.4-3.1 3.1-3.8-2.3-1.6-3.1-3.9-1.6-5.5 0.8-2.3 0-2.3-4.6-0.7-3.1 1.5-6.2 3.8-5.4 6.2 0 1.5-0.8 2.3-1.6 0.7-3.8-1.5-23.2 10.1-37.9 24-6.9 6.2-13.1 10.1-13.9 8.5-1.5-1.5 6.2-9.3 20.1-20.1 37.2-27.8 75.1-41.8 96-34 7.7 3.1 19.3 8.5 29.4 14.7 3.1 0.7-7.8 13.9-11.6 13.9-11.6 0-61.9 30.9-86.7 53.4-45.7 41-65 61.9-103.7 116.1-22.4 31.7-27.9 40.2-32.5 50.3-3.1 6.9-7 16.2-7.7 21.6-0.8 4.7-4.7 13.9-7 20.9-3.1 7-5.4 16.3-4.6 20.9l0.7 8.5h19.4c19.3-0.8 32.5-5.4 65.8-24 15.4-9.3 47.9-36.3 68.1-57.2 9.2-10.9 17.7-17.1 19.3-16.3 2.3 1.6 2.3 0.8 1.5-1.5-1.5-1.6 2.4-8.5 8.6-15.5 27-34.1 46.4-63.5 63.4-96.7 9.3-18.6 20.1-39.5 24-46.5 3.9-7.7 11.6-23.2 16.2-34 4.7-11.6 11.7-26.3 14.8-34.1 3.8-7.7 10-23.2 13.9-34.8 8.5-24.7 11.6-26.3 3.8-1.5-3 10-6.1 18.5-6.1 20.1-0.8 1.5-2.4 5.4-3.9 8.5-1.6 3.1-5.4 14.7-8.5 25.5-7.8 28.7-14.7 47.2-26.3 65-5.4 8.6-9.3 17.1-9.3 17.8 0 0.8-6.2 12.4-13.9 26.3-7.8 14-16.3 30.2-20.2 35.6-3.1 6.2-7.7 14-10.8 17.1-3.9 3.8-7 8.5-7.7 11.6-1.6 3.1-4.7 6.9-7 10-3.1 2.4-5.4 6.2-5.4 8.5 0 1.6-1.6 3.9-3.1 3.9-1.6 0-2.3 1.6-2.3 3.1 0 1.6-3.9 7-8.5 12.4-3.9 4.6-7.8 9.3-7.8 10.1 0 6.1-51.1 60.3-72.7 76.6-6.2 5.4-11.6 10-10.9 10.8 2.4 2.3 21.7-10.1 28.7-18.6 3.8-4.6 7.7-7.7 8.5-7.7 4.6 0 48.7-48 72.7-78.9 13.2-17.1 31-43.4 39.5-58.1 16.2-29.4 53.4-102.9 54.9-108.3 0-1.6 1.6-7 3.9-11.6 7-16.3 19.3-53.4 19.3-58.1 0-3.1 0.8-6.2 2.4-6.9 1.5-0.8 2.3-3.9 2.3-7.8 0-3.1 2.3-13.9 5.4-24.7 3.1-10.9 6.2-21.7 7-24.8 0.7-3.1 2.3-10.8 3.8-17 6.2-25.5 2.4-22.5-6.2 4.6-5.4 15.5-10 29.4-11.6 31-2.3 1.5 0-7 3.1-18.6 7-21.7 20.2-82.8 22.5-103.7 0.8-6.2 2.3-14.7 3.8-17.8 1.6-4.6 2.4-11.6 2.4-17.8 0.7-4.6 2.3-19.3 5.4-31.7 3.9-20.1 4.6-37.9 1.5-71.2-1.5-15.5-5.4-34-6.9-34-0.8 0-5.4 1.5-10.9 2.3-26.3 5.4-85.9 21.6-109.8 30.9-27.9 10.1-90.6 39.5-105.3 49.6-4.6 3.8-16.2 10.8-26.3 15.4-20.9 10.9-27.1 9.3-32.5-8.5-2.3-6.2-5.4-11.6-6.2-13.1-1.5-0.8-2.3-7.8-2.3-15.5 0-10.8 0.8-15.5 6.2-20.9 6.2-7 27.1-17.8 52.6-27.1 7.7-2.3 14.7-5.4 16.3-7 1.5-0.7 10-3.8 18.5-6.1 9.3-2.4 19.4-6.2 23.2-7.8 20.9-8.5 30.2-11.6 34.1-10.8 0.8 0.8 3.9 0 5.4-2.3 2.3-1.6 7.7-3.1 13.2-3.9 4.6 0 13.9-2.3 20.9-3.9 6.9-1.5 14.7-3.8 18.5-3.8 3.1-0.8 7-1.6 9.3-3.9 1.6-0.8 8.5-2.3 13.9-3.1 6.2 0 13.2-2.3 15.5-4.6 2.3-2.4 6.2-3.1 7.7-2.4 7.8 4.7 0.8 8.5-23.2 14.7-36.3 8.5-55.7 14.7-55.7 17.1 0 3.1-1.5 3.1 28.7-4.7 29.4-7.7 29.4-7.7 27.8-3.9-0.8 0.8-6.2 3.1-12.4 3.9-14.7 3.1-63.4 17.8-66.5 20.9-4.7 3.9 1.5 3.1 20.1-3.1 10.1-3.1 23.2-7 29.4-7.7 11.6-2.3 32.5-7.8 59.6-14.7 12.4-3.1 16.2-8.5 3.9-6.2-12.4 3.1-17.1 3.8-22.5 5.4-3.1 1.5-5.4 0.8-5.4-0.8 0-1.5 7.7-4.6 17-6.2 9.3-2.3 17-5.4 17.8-6.9 0-1.6-1.5-2.4-6.9-1.6-4.7 0.8-7 0.8-5.5-2.3 0.8-2.3 3.1-3.9 4.7-3.9 2.3 0 6.9-1.5 11.6-3.1 5.4-3.1 25.5-2.3 28.6 0.8 0.8 0.8-3.1 2.3-7.7 3.1-7.8 2.3-7 3.1 8.5 2.3 9.3-0.7 25.5-2.3 34.8-3.8 31-4.7 37.9-5.5 37.9-3.9 0 1.5-12.3 3.9-27.8 6.2-19.4 2.3-27.9 4.6-26.3 6.2 2.3 2.3 37.1-0.8 57.2-5.4 9.3-1.6 132.4-6.2 182.6-6.2 24.8 0 39.5-1.6 39.5-3.1 0-1.6 3.1-2.4 6.2-2.4 6.2 0 6.2 0 0.8-3.8-3.1-1.6-22.5-3.1-51.1-3.9-25.5-0.8-47.2-2.3-47.2-3.9-0.8-0.7-2.3-2.3-3.9-2.3-1.5 0-1.5 1.6-0.7 3.1 0.7 1.6-4.7 3.1-14 3.1-9.3 0-28.6 0.8-44.8 1.6-19.4 0.7-29.5 0-29.5-1.6 0-3.1 20.2-5.4 46.5-7 7.7 0 16.2-1.5 18.5-2.3 2.4-2.3 3.9-1.5 5.5 0.8 1.5 2.3 2.3 2.3 3.8 0 1.6-1.6 10.9-3.1 24.8-3.1 14.7 0 22.4 0.8 21.7 3.1-0.8 1.5 0.7 2.3 3.1 2.3q3.4 0 2.3-2.3c-0.8-1.6-0.8-3.1 1.5-3.1 1.6 0 2.3 1.5 2.3 3.1 0 1.5 1.6 2.3 3.1 2.3 1.6 0 2.4-0.8 1.6-2.3-2.3-3.9 41-3.1 48 0 2.3 1.5 9.3 3.9 13.9 3.9 8.5 1.5 17.8 10.8 16.2 17-0.7 2.3 2.4 4.6 9.3 7.7 8.5 3.1 11.6 6.2 11.6 10.9 0 3.1 0.8 6.9 2.4 7.7 0.7 0.8 1.5 3.9 0.7 7zm-52.6-48.8c0-1.5-3.8-3.1-9.3-3.1-4.6 0-10.8-0.8-13.1-1.5-2.3-0.8-3.9 0-3.9 1.5 0 1.6 4.7 3.1 10.8 3.9 7 0.8 12.4 1.5 14 1.5 0.7 0 1.5-0.7 1.5-2.3zm-659.3 610.6c0 4.6 12.4-0.8 19.4-8.6 3.8-3.8 10.8-12.3 16.2-18.5 5.4-7 14-17.8 20.1-24 6.2-7 14-15.5 16.3-19.4 3.1-3.1 13.9-13.1 24.8-22.4 10-9.3 24.7-21.7 30.9-27.9 7-6.2 18.6-15.4 25.5-20.9 8.5-6.9 11.6-10.8 8.5-10.8-2.3 0-9.2 3.9-13.9 7-4.6 3.8-9.3 6.9-10.8 6.9-3.9 0-35.6 28.7-65 58.1-27.9 27.8-60.4 67.3-56.5 67.3 0.8 0 0 2.3-3.1 4.6-2.3 3.1-7 5.5-8.5 5.5-2.3 0-3.9 1.5-3.9 3.1zm92.1-74.3c0.8-3.1-15.5 9.3-17 13.9-0.8 2.3 2.3 0 7.7-3.9 4.7-4.6 9.3-8.5 9.3-10zm260.8-253.8c-1.6 0-2.3 6.1-3.1 14.7-0.8 8.5-3.1 17-4.7 18.5-1.5 2.4-2.3 3.9-1.5 4.7 1.5 1.5-5.4 32.5-11.6 54.1-3.1 7.8-7.7 24-11.6 35.6-3.1 10.9-7.8 23.3-9.3 27.9-1.6 4.6-7 17.8-10.8 28.6-7 18.6-50.3 105.3-55.7 112.2-1.6 1.6-7 11.6-11.7 22.5-5.4 10-16.2 27.1-23.9 37.9-7.8 10-15.5 21.7-17.1 24.7-1.5 3.9-3.1 6.2-4.6 6.2-0.8 0-7 7-13.9 16.3-6.2 8.5-12.4 15.5-14 14.7-1.5-0.8-3.8 0-4.6 2.3-4.7 7.7-47.2 48-50.3 48-2.3 0-4.7 1.5-5.4 3.1-3.9 5.4 5.4 2.3 23.2-10.1 17-10.8 59.6-49.5 59.6-54.1 0-0.8 1.5-2.4 3.1-4.7 8.5-10 32.5-42.5 38.7-53.4 3.8-6.9 13.9-23.2 21.6-36.3 8.5-12.4 14.7-23.3 14-23.3-0.8 0 1.5-3.8 4.6-9.2 2.3-4.7 6.2-11.7 7.7-15.5 1.6-3.1 5.4-11.6 8.5-17.1 16.3-30.9 27.9-55.7 32.5-70.4 4.7-14.7 14-36.3 21.7-51 1.6-3.1 0.8-5.5-0.8-6.2-2.3-0.8-0.7-1.6 2.4-3.1 3.8-0.8 6.9-3.9 7.7-7 2.3-8.5-0.8-10.1-3.9-2.3l-3.1 7v-6.2c0-3.9 1.6-7 3.9-7.8 2.3-0.8 3.1-3.8 2.3-6.9-0.7-2.4 1.6-14.7 4.7-27.9 6.2-24 8.5-37.9 9.3-52.6 0-4.7 1.5-9.3 3.1-9.3 3 0-3.9-4.6-7-4.6zm-177.2 162.5c5.4-2.4 9.3-3.9 9.3-4.7 0-2.3-7.8 0-12.4 3.1-4.7 3.9-4.7 3.9 3.1 1.6zm-8.5 11.6c2.3 3.1 7.7 1.5 8.5-2.4q1.1-3.4-4.7-2.3c-2.3 0.8-4.6 3.1-3.8 4.7zm-66.6 68.8l-6.9 7.8 10.8-7.8c6.2-4.6 13.1-10.8 17-13.9 7.8-8.5 29.4-25.5 37.2-30.9 23.2-15.5 34-23.3 33.2-24-4.6-4.7-69.6 44.1-91.3 68.8zm-32.5 36.4c0-1.5-0.8-2.3-3.1-1.5-3.1 2.3-3.1 3.8 0 3.8 2.3 0 3.1-0.7 3.1-2.3zm-24 209.7c-2.3-0.8-4.6-0.8-5.4 0-0.8 0.8 0.8 1.6 3.9 1.6 3.1 0 3.9-0.8 1.5-1.6zm15.5-8.5c-3.1 0-5.4 0.8-6.2 2.3-2.3 3.1 1.6 3.1 7 0 3.1-2.3 3.1-2.3-0.8-2.3zm23.2-27.9c0.8 0 4.7-2.3 7.8-5.4 3.1-3.1 4.6-5.4 3.8-5.4-3.1 0-27.1 13.9-33.2 19.4-8.6 7.7-22.5 13.9-41.8 17-13.2 3.1-15.5 3.8-8.5 4.6 5.4 0 14.7-1.5 20.9-3.1 5.4-2.3 10.8-3.8 12.3-3.8 6.2-1.6 14-6.2 24.8-14 7-5.4 13.1-9.3 13.9-9.3zm101.4-301c3.1 0 6.2-1.5 7-2.3 2.3-3.9 0-3.9-7.8 0-5.4 1.6-5.4 2.3 0.8 2.3zm177.2-161.7c0-3.9-1.5-6.2-3.1-5.4-1.5 1.5-2.3 4.6-2.3 8.5 0 3.9 0.8 6.2 2.3 5.4 1.6-1.5 3.1-4.6 3.1-8.5zm2.3-18.6c0-0.7-0.8-1.5-2.3-1.5-1.5 0-3.1 1.5-3.1 3.1 0 1.5 1.6 2.3 3.1 0.7 1.5-0.7 2.3-2.3 2.3-2.3zm32.5-212.8c0-1.5-1.5-3.1-3.8-3.1-2.4 0-3.9 1.6-3.1 3.1 1.5 0.8 3.1 2.3 4.6 2.3 1.5 0 2.3-1.5 2.3-2.3zm46.4-6.2c0-1.5-3.8-2.3-13.1-0.7-24.8 3.1-30.2 4.6-28.6 6.9 0.7 1.6 3.1 1.6 4.6 0.8 1.6-1.6 6.2-2.3 10.1-2.3 3.8-0.8 10.8-0.8 17-1.6 5.4 0 10-1.5 10-3.1zm66.6-6.2c-24 0.8-48.8 3.1-54.2 3.9-14.7 2.3 62.7 0 82.8-3.1 8.5-0.8-2.3-1.5-28.6-0.8zm62.7-1.5c-5.4-1.6-15.5-0.8-15.5 1.5 0 0.8 4.6 0.8 10.1 0.8 7.7 0 9.2-0.8 5.4-2.3zm30.9-2.3c-3.1 0-5.4 0.7-3.8 2.3 0.7 1.5 2.3 2.3 3.8 2.3 1.6 0 3.1-0.8 3.9-2.3 0.8-1.6-0.8-2.3-3.9-2.3zm16.3 2.3c0-1.3-1.9-2.3-4.3-2.3-2.3 0-4.2 1-4.2 2.3 0 1.3 1.9 2.3 4.2 2.3 2.4 0 4.3-1 4.3-2.3zm10.8-1.6c0-0.7-1.5-0.7-3.9-0.7-2.3 0-4.6 0.7-4.6 2.3 0 1.5 2.3 1.5 4.6 0.8 2.4-0.8 3.9-1.6 3.9-2.4zm19.4-0.7c-4.7 0-8.6 0.7-8.6 2.3 0 1.5 3.1 2.3 7 2.3 3.1 0 7-0.8 7.8-2.3 1.5-1.6-1.6-2.3-6.2-2.3zm-203.6-10.1c4.7-4.6 143.2-9.3 184.2-7 22.5 2.4 20.1 2.4-25.5 3.1-28.7 0-55 0.8-58.8 1.6-16.3 1.5-101.4 3.9-99.9 2.3zm0.8-16.2c21.7-1.6 25.6-1.6 25.6 2.3 0 2.3-2.4 4.6-4.7 5.4-3.1 0.8-6.2 0-6.2-0.8 0-3.8-15.5-3.1-17 0.8-0.8 2.3-1.6 2.3-1.6 0 0-2.3-4.6-3.9-12.3-3.9-21.7 0-11.6-2.3 16.2-3.8zm-39.4 6.2c-2.4-0.8 3-0.8 12.3 0 23.2 1.5 25.6 6.1 3.1 6.1-12.4 0-17.8-0.7-15.4-2.3 3-2.3 3-3.1 0-3.8zm-26.4 7.7c-4.6-5.4-0.7-7 11.7-6.2 6.9 0 8.5 0.8 6.1 3.9-6.1 5.4-14.7 6.9-17.8 2.3zm2.4-1.6c0 1.6 0.7 2.4 2.3 1.6 1.5-0.8 3.1-2.3 3.1-3.1 0-0.8-1.6-1.6-3.1-1.6-1.6 0-2.3 1.6-2.3 3.1z"/>
			</g>
		</g>
	</g>
</svg>