<svg xmlns="http://www.w3.org/2000/svg" xmlns:xlink="http://www.w3.org/1999/xlink" width="1080" zoomAndPan="magnify" viewBox="0 0 810 809.999993" height="1080" preserveAspectRatio="xMidYMid meet" version="1.0"><defs><g/></defs><path fill="#101725" d="M 405 0 C 181.324219 0 0 181.324219 0 405 C 0 628.675781 181.324219 810 405 810 C 628.675781 810 810 628.675781 810 405 C 810 181.324219 628.675781 0 405 0 " fill-opacity="1" fill-rule="nonzero"/><g fill="#ffffff" fill-opacity="1"><g transform="translate(137.288813, 620.066143)"><g><path d="M 479.550781 -468.410156 C 478.582031 -468.894531 478.097656 -471.316406 478.097656 -473.253906 C 478.097656 -476.160156 476.160156 -478.097656 470.832031 -480.035156 C 466.472656 -481.972656 464.535156 -483.425781 465.019531 -484.878906 C 465.988281 -488.753906 460.175781 -494.566406 454.847656 -495.535156 C 451.941406 -495.535156 447.582031 -496.988281 446.128906 -497.957031 C 441.769531 -499.894531 414.640625 -500.378906 416.09375 -497.957031 C 416.578125 -496.988281 416.09375 -496.503906 415.125 -496.503906 C 414.15625 -496.503906 413.1875 -496.988281 413.1875 -497.957031 C 413.1875 -498.925781 412.703125 -499.894531 411.734375 -499.894531 C 410.28125 -499.894531 410.28125 -498.925781 410.765625 -497.957031 C 411.25 -496.988281 410.765625 -496.503906 409.3125 -496.503906 C 407.859375 -496.503906 406.890625 -496.988281 407.375 -497.957031 C 407.859375 -499.410156 403.015625 -499.894531 393.8125 -499.894531 C 385.09375 -499.894531 379.28125 -498.925781 378.3125 -497.957031 C 377.34375 -496.503906 376.859375 -496.503906 375.890625 -497.957031 C 374.921875 -499.410156 373.953125 -499.894531 372.5 -498.441406 C 371.046875 -497.957031 365.71875 -496.988281 360.875 -496.988281 C 344.40625 -496.019531 331.808594 -494.566406 331.808594 -492.628906 C 331.808594 -491.660156 338.109375 -491.175781 350.21875 -491.660156 C 360.390625 -492.144531 372.5 -492.628906 378.3125 -492.628906 C 384.125 -492.628906 387.515625 -493.597656 387.03125 -494.566406 C 386.546875 -495.535156 386.546875 -496.503906 387.515625 -496.503906 C 388.484375 -496.503906 389.453125 -495.535156 389.9375 -495.050781 C 389.9375 -494.082031 403.5 -493.113281 419.484375 -492.628906 C 437.410156 -492.144531 449.519531 -491.175781 451.457031 -490.207031 C 454.847656 -487.785156 454.847656 -487.785156 450.972656 -487.785156 C 449.035156 -487.785156 447.097656 -487.300781 447.097656 -486.332031 C 447.097656 -485.363281 437.894531 -484.394531 422.390625 -484.394531 C 390.90625 -484.394531 313.886719 -481.488281 308.074219 -480.519531 C 295.480469 -477.613281 273.683594 -475.675781 272.230469 -477.128906 C 271.261719 -478.097656 276.589844 -479.550781 288.699219 -481.003906 C 298.386719 -482.457031 306.136719 -483.910156 306.136719 -484.878906 C 306.136719 -485.847656 301.777344 -485.363281 282.402344 -482.457031 C 276.589844 -481.488281 266.417969 -480.519531 260.605469 -480.035156 C 250.917969 -479.550781 250.433594 -480.035156 255.277344 -481.488281 C 258.183594 -481.972656 260.605469 -482.941406 260.121094 -483.425781 C 258.183594 -485.363281 245.589844 -485.847656 242.199219 -483.910156 C 239.289062 -482.941406 236.382812 -481.972656 234.929688 -481.972656 C 233.960938 -481.972656 232.507812 -481.003906 232.023438 -479.550781 C 231.054688 -477.613281 232.507812 -477.613281 235.414062 -478.097656 C 238.804688 -478.582031 239.773438 -478.097656 239.773438 -477.128906 C 239.289062 -476.160156 234.445312 -474.222656 228.632812 -472.769531 C 222.820312 -471.800781 217.976562 -469.863281 217.976562 -468.894531 C 217.976562 -467.925781 219.429688 -467.441406 221.367188 -468.410156 C 224.757812 -469.378906 227.664062 -469.863281 235.414062 -471.800781 C 243.167969 -473.253906 240.746094 -469.863281 232.992188 -467.925781 C 216.039062 -463.566406 202.960938 -460.175781 195.695312 -458.722656 C 191.820312 -458.238281 183.585938 -455.816406 177.289062 -453.878906 C 165.664062 -450.003906 161.789062 -449.519531 164.695312 -451.941406 C 166.632812 -453.878906 197.148438 -463.082031 206.351562 -465.019531 C 210.226562 -465.503906 213.617188 -466.957031 214.101562 -467.441406 C 215.070312 -469.863281 215.070312 -469.863281 196.664062 -465.019531 C 177.773438 -460.175781 178.742188 -460.175781 178.742188 -462.113281 C 178.742188 -463.566406 190.851562 -467.441406 213.617188 -472.769531 C 228.632812 -476.644531 232.992188 -479.066406 228.148438 -481.972656 C 227.179688 -482.457031 224.757812 -481.972656 223.304688 -480.519531 C 221.851562 -479.066406 217.492188 -477.613281 213.617188 -477.613281 C 210.226562 -477.128906 205.867188 -476.160156 204.898438 -475.675781 C 203.445312 -474.222656 201.023438 -473.738281 199.085938 -473.253906 C 196.664062 -473.253906 191.820312 -471.800781 187.460938 -470.832031 C 183.101562 -469.863281 177.289062 -468.410156 174.382812 -468.410156 C 170.992188 -467.925781 167.601562 -466.957031 166.148438 -465.988281 C 165.179688 -464.535156 163.242188 -464.050781 162.757812 -464.535156 C 160.335938 -465.019531 154.523438 -463.082031 141.441406 -457.753906 C 139.019531 -456.785156 132.722656 -454.363281 126.910156 -452.910156 C 121.582031 -451.457031 116.253906 -449.519531 115.285156 -449.035156 C 114.316406 -448.066406 109.957031 -446.128906 105.113281 -444.675781 C 89.128906 -438.863281 76.050781 -432.078125 72.175781 -427.71875 C 68.785156 -424.328125 68.300781 -421.421875 68.300781 -414.640625 C 68.300781 -409.796875 68.785156 -405.4375 69.753906 -404.953125 C 70.238281 -403.984375 72.175781 -400.59375 73.628906 -396.71875 C 77.019531 -385.578125 80.894531 -384.609375 93.972656 -391.390625 C 100.269531 -394.296875 107.535156 -398.65625 110.441406 -401.078125 C 119.644531 -407.375 158.882812 -425.78125 176.320312 -432.078125 C 191.335938 -437.894531 228.632812 -448.066406 245.105469 -451.457031 C 248.496094 -451.941406 251.402344 -452.910156 251.886719 -452.910156 C 252.855469 -452.910156 255.277344 -441.285156 256.246094 -431.59375 C 258.183594 -410.765625 257.699219 -399.625 255.277344 -387.03125 C 253.339844 -379.28125 252.371094 -370.078125 251.886719 -367.171875 C 251.886719 -363.296875 251.402344 -358.9375 250.433594 -356.03125 C 249.464844 -354.09375 248.496094 -348.765625 248.011719 -344.890625 C 246.558594 -331.808594 238.320312 -293.542969 233.960938 -279.980469 C 232.023438 -272.714844 230.570312 -267.386719 232.023438 -268.355469 C 232.992188 -269.324219 235.898438 -278.042969 239.289062 -287.730469 C 244.621094 -304.683594 247.042969 -306.621094 243.167969 -290.636719 C 242.199219 -286.761719 241.230469 -281.917969 240.746094 -279.980469 C 240.257812 -278.042969 238.320312 -271.261719 236.382812 -264.480469 C 234.445312 -257.699219 232.992188 -250.917969 232.992188 -248.980469 C 232.992188 -246.558594 232.507812 -244.621094 231.539062 -244.136719 C 230.570312 -243.652344 230.085938 -241.714844 230.085938 -239.773438 C 230.085938 -236.867188 222.335938 -213.617188 217.976562 -203.445312 C 216.523438 -200.539062 215.554688 -197.148438 215.554688 -196.179688 C 214.585938 -192.789062 191.335938 -146.773438 181.164062 -128.363281 C 175.835938 -119.160156 164.695312 -102.691406 156.460938 -92.035156 C 141.441406 -72.660156 113.832031 -42.625 110.925781 -42.625 C 110.441406 -42.625 108.019531 -40.6875 105.597656 -37.78125 C 101.238281 -32.453125 89.128906 -24.703125 87.675781 -26.15625 C 87.191406 -26.640625 90.582031 -29.546875 94.457031 -32.9375 C 108.019531 -43.109375 139.988281 -77.019531 139.988281 -80.894531 C 139.988281 -81.378906 142.410156 -84.285156 144.835938 -87.191406 C 147.742188 -90.582031 150.164062 -93.972656 150.164062 -94.941406 C 150.164062 -95.910156 150.648438 -96.878906 151.617188 -96.878906 C 152.585938 -96.878906 153.554688 -98.332031 153.554688 -99.300781 C 153.554688 -100.753906 155.007812 -103.175781 156.945312 -104.628906 C 158.398438 -106.566406 160.335938 -108.988281 161.304688 -110.925781 C 161.789062 -112.863281 163.726562 -115.769531 166.148438 -118.191406 C 168.085938 -120.128906 170.992188 -124.972656 172.929688 -128.847656 C 175.351562 -132.238281 180.679688 -142.410156 185.523438 -151.132812 C 190.367188 -159.851562 194.242188 -167.117188 194.242188 -167.601562 C 194.242188 -168.085938 196.664062 -173.414062 200.054688 -178.742188 C 207.320312 -189.882812 211.679688 -201.507812 216.523438 -219.429688 C 218.460938 -226.210938 220.882812 -233.476562 221.851562 -235.414062 C 222.820312 -237.351562 223.789062 -239.773438 224.273438 -240.746094 C 224.273438 -241.714844 226.210938 -247.042969 228.148438 -253.339844 C 232.992188 -268.839844 231.054688 -267.871094 225.726562 -252.371094 C 223.304688 -245.105469 219.429688 -235.414062 217.007812 -230.570312 C 215.070312 -225.726562 210.710938 -216.523438 207.804688 -209.257812 C 204.898438 -202.476562 200.054688 -192.789062 197.632812 -187.945312 C 195.210938 -183.585938 188.429688 -170.507812 182.617188 -158.882812 C 171.960938 -138.050781 159.851562 -119.644531 142.894531 -98.332031 C 139.019531 -93.972656 136.597656 -89.613281 137.566406 -88.644531 C 138.050781 -87.191406 138.050781 -86.707031 136.597656 -87.675781 C 135.628906 -88.160156 130.300781 -84.285156 124.488281 -77.503906 C 111.894531 -64.425781 91.550781 -47.46875 81.863281 -41.65625 C 61.035156 -30.03125 52.800781 -27.125 40.6875 -26.640625 L 28.578125 -26.640625 L 28.09375 -31.96875 C 27.609375 -34.875 29.0625 -40.6875 31 -45.046875 C 32.453125 -49.410156 34.875 -55.222656 35.359375 -58.128906 C 35.84375 -61.519531 38.265625 -67.332031 40.203125 -71.691406 C 43.109375 -77.988281 46.5 -83.316406 60.550781 -103.175781 C 84.769531 -137.082031 96.878906 -150.164062 125.457031 -175.835938 C 140.957031 -189.882812 172.445312 -209.257812 179.710938 -209.257812 C 182.132812 -209.257812 188.914062 -217.492188 186.976562 -217.976562 C 180.679688 -221.851562 173.414062 -225.242188 168.570312 -227.179688 C 155.492188 -232.023438 131.753906 -223.304688 108.503906 -205.867188 C 99.785156 -199.085938 94.941406 -194.242188 95.910156 -193.273438 C 96.394531 -192.304688 100.269531 -194.726562 104.628906 -198.601562 C 113.832031 -207.320312 125.941406 -214.585938 128.363281 -213.617188 C 128.847656 -212.648438 129.332031 -213.132812 129.332031 -214.101562 C 128.847656 -215.554688 130.785156 -217.007812 132.722656 -217.976562 C 135.628906 -218.945312 136.113281 -218.945312 135.628906 -217.492188 C 134.660156 -216.523438 135.144531 -215.070312 136.597656 -214.101562 C 138.050781 -213.617188 137.566406 -212.648438 134.660156 -211.679688 C 132.238281 -211.195312 127.878906 -208.289062 124.488281 -205.867188 C 111.410156 -196.179688 72.175781 -161.304688 72.175781 -159.367188 C 72.175781 -159.367188 68.785156 -155.492188 64.425781 -151.132812 C 57.160156 -143.378906 44.078125 -128.363281 37.78125 -120.613281 C 34.875 -117.222656 34.875 -116.738281 35.84375 -120.128906 C 36.328125 -122.550781 37.78125 -125.457031 39.71875 -127.394531 C 41.65625 -129.332031 43.109375 -131.753906 43.109375 -132.238281 C 43.109375 -133.207031 44.5625 -135.628906 46.5 -137.082031 C 48.441406 -138.535156 49.410156 -140.472656 49.410156 -141.441406 C 48.441406 -144.347656 88.160156 -186.976562 92.035156 -186.976562 C 93.003906 -186.976562 93.972656 -188.429688 93.972656 -189.882812 C 93.972656 -193.757812 93.003906 -192.789062 84.285156 -185.039062 C 65.878906 -168.085938 40.6875 -139.988281 31 -125.941406 C 27.125 -120.613281 22.28125 -113.832031 19.375 -109.957031 C 10.171875 -97.363281 -1.453125 -77.019531 -3.875 -68.785156 C -6.296875 -60.550781 -5.328125 -38.265625 -2.421875 -36.8125 C -1.9375 -36.328125 -0.96875 -34.390625 -0.96875 -32.9375 C -0.96875 -31 1.453125 -27.125 4.84375 -23.25 C 8.234375 -19.859375 10.65625 -16.46875 10.65625 -15.5 C 10.65625 -14.53125 23.25 -5.328125 25.1875 -5.328125 C 25.671875 -5.328125 28.578125 -3.875 31.484375 -1.453125 C 36.8125 2.421875 43.59375 5.328125 50.863281 7.265625 C 59.097656 9.203125 81.863281 5.328125 93.488281 0.484375 C 96.394531 -0.96875 99.785156 -1.9375 100.753906 -1.9375 C 101.722656 -1.9375 102.691406 -2.90625 102.691406 -3.875 C 102.691406 -4.84375 103.175781 -5.328125 104.628906 -5.328125 C 108.019531 -5.328125 123.519531 -14.046875 124.972656 -16.46875 C 125.941406 -17.921875 126.910156 -18.890625 128.363281 -18.890625 C 130.785156 -18.890625 144.835938 -29.546875 145.804688 -32.453125 C 146.289062 -33.90625 149.195312 -37.296875 152.585938 -39.234375 C 155.492188 -41.65625 158.882812 -45.046875 158.882812 -46.5 C 159.367188 -48.441406 161.304688 -49.410156 162.757812 -49.410156 C 164.210938 -49.410156 165.179688 -50.378906 165.179688 -51.347656 C 165.179688 -51.832031 169.054688 -56.675781 173.414062 -62.003906 C 177.773438 -67.332031 181.648438 -72.660156 181.648438 -73.628906 C 182.132812 -77.019531 187.460938 -85.253906 189.398438 -85.253906 C 190.367188 -85.253906 191.820312 -87.675781 193.273438 -91.066406 C 194.726562 -93.972656 198.117188 -99.785156 201.507812 -103.660156 C 204.898438 -107.535156 207.804688 -110.925781 207.804688 -112.378906 C 207.804688 -113.347656 210.226562 -117.707031 213.617188 -122.066406 C 220.398438 -132.238281 240.257812 -172.929688 251.402344 -199.085938 C 255.761719 -209.742188 260.605469 -221.851562 262.058594 -225.242188 C 263.996094 -229.117188 266.417969 -237.351562 267.871094 -243.167969 C 269.808594 -249.464844 271.746094 -255.761719 272.230469 -257.699219 C 274.167969 -261.574219 275.621094 -266.902344 276.589844 -272.230469 C 277.074219 -274.167969 278.042969 -278.527344 279.011719 -281.433594 C 280.949219 -288.214844 287.246094 -321.636719 288.214844 -331.324219 C 288.699219 -335.683594 289.183594 -340.53125 289.667969 -341.5 C 293.058594 -350.703125 294.996094 -371.53125 294.511719 -393.328125 C 294.511719 -418.03125 294.027344 -424.8125 292.089844 -428.203125 C 291.605469 -428.6875 290.636719 -432.078125 290.152344 -434.988281 C 289.183594 -442.253906 284.339844 -455.816406 281.917969 -458.722656 C 280.949219 -459.691406 280.949219 -461.144531 280.949219 -461.628906 C 281.433594 -462.113281 293.542969 -462.597656 307.105469 -463.082031 C 321.152344 -463.566406 336.652344 -464.535156 341.015625 -465.019531 C 345.859375 -465.503906 361.359375 -466.472656 375.890625 -466.957031 C 390.421875 -467.441406 403.015625 -468.410156 403.984375 -469.378906 C 404.953125 -469.863281 406.40625 -470.347656 407.375 -469.378906 C 407.859375 -468.894531 417.0625 -468.410156 427.71875 -468.894531 C 448.550781 -469.378906 448.066406 -469.863281 433.535156 -458.722656 C 430.625 -456.300781 428.203125 -453.394531 429.171875 -452.910156 C 430.140625 -451.941406 431.109375 -452.425781 431.59375 -453.394531 C 433.535156 -456.300781 445.644531 -462.597656 445.644531 -460.175781 C 445.644531 -459.207031 444.191406 -458.238281 442.253906 -457.753906 C 440.316406 -457.269531 438.863281 -456.300781 438.863281 -455.332031 C 438.863281 -454.363281 437.410156 -451.941406 435.472656 -450.003906 C 428.203125 -442.253906 437.894531 -441.285156 449.035156 -448.550781 C 453.394531 -451.457031 456.785156 -452.910156 457.753906 -451.941406 C 459.207031 -449.519531 470.347656 -455.816406 472.769531 -460.175781 C 474.222656 -463.566406 475.191406 -464.050781 476.644531 -462.597656 C 478.582031 -461.144531 479.550781 -461.628906 480.035156 -464.050781 C 480.519531 -465.988281 480.035156 -467.925781 479.550781 -468.410156 Z M 446.128906 -493.113281 C 445.160156 -493.113281 441.769531 -493.597656 437.410156 -494.082031 C 433.535156 -494.566406 430.625 -495.535156 430.625 -496.503906 C 430.625 -497.472656 431.59375 -497.957031 433.046875 -497.472656 C 434.503906 -496.988281 438.378906 -496.503906 441.285156 -496.503906 C 444.675781 -496.503906 447.097656 -495.535156 447.097656 -494.566406 C 447.097656 -493.597656 446.613281 -493.113281 446.128906 -493.113281 Z M 75.082031 -141.441406 C 73.144531 -141.441406 73.144531 -142.410156 75.082031 -143.863281 C 76.535156 -144.347656 77.019531 -143.863281 77.019531 -142.894531 C 77.019531 -141.925781 76.535156 -141.441406 75.082031 -141.441406 Z M 86.222656 -152.585938 C 82.832031 -150.164062 80.894531 -148.710938 81.378906 -150.164062 C 82.347656 -153.070312 92.519531 -160.820312 92.035156 -158.882812 C 92.035156 -157.914062 89.128906 -155.492188 86.222656 -152.585938 Z M 149.195312 -224.273438 C 154.039062 -226.695312 155.492188 -226.695312 154.039062 -224.273438 C 153.554688 -223.789062 151.617188 -222.820312 149.679688 -222.820312 C 145.804688 -222.820312 145.804688 -223.304688 149.195312 -224.273438 Z M 142.410156 -217.007812 C 145.320312 -218.945312 150.164062 -220.398438 150.164062 -218.945312 C 150.164062 -218.460938 147.742188 -217.492188 144.347656 -216.039062 C 139.503906 -214.585938 139.503906 -214.585938 142.410156 -217.007812 Z M 141.441406 -211.679688 C 143.863281 -212.164062 144.835938 -211.679688 144.347656 -210.226562 C 143.863281 -207.804688 140.472656 -206.835938 139.019531 -208.773438 C 138.535156 -209.742188 139.988281 -211.195312 141.441406 -211.679688 Z M 154.523438 -208.773438 C 155.007812 -208.289062 148.226562 -203.445312 133.691406 -193.757812 C 128.847656 -190.367188 115.285156 -179.710938 110.441406 -174.382812 C 108.019531 -172.445312 103.660156 -168.570312 99.785156 -165.664062 L 93.003906 -160.820312 L 97.363281 -165.664062 C 110.925781 -181.164062 151.617188 -211.679688 154.523438 -208.773438 Z M 36.8125 -114.316406 C 37.78125 -114.316406 40.6875 -115.769531 42.140625 -117.707031 C 44.078125 -119.160156 44.5625 -120.613281 44.078125 -120.613281 C 41.65625 -120.613281 62.003906 -145.320312 79.441406 -162.757812 C 97.847656 -181.164062 117.707031 -199.085938 120.128906 -199.085938 C 121.097656 -199.085938 124.003906 -201.023438 126.910156 -203.445312 C 129.816406 -205.382812 134.175781 -207.804688 135.628906 -207.804688 C 137.566406 -207.804688 135.628906 -205.382812 130.300781 -201.023438 C 125.941406 -197.632812 118.675781 -191.820312 114.316406 -187.945312 C 110.441406 -184.070312 101.238281 -176.320312 94.941406 -170.507812 C 88.160156 -164.695312 81.378906 -158.398438 79.441406 -156.460938 C 77.988281 -154.039062 73.144531 -148.710938 69.269531 -144.347656 C 65.394531 -140.472656 60.066406 -133.691406 56.675781 -129.332031 C 53.285156 -125.457031 48.925781 -120.128906 46.5 -117.707031 C 42.140625 -112.863281 34.390625 -109.472656 34.390625 -112.378906 C 34.390625 -113.347656 35.359375 -114.316406 36.8125 -114.316406 Z M 61.035156 -10.65625 C 59.097656 -10.65625 58.128906 -11.140625 58.613281 -11.625 C 59.097656 -12.109375 60.550781 -12.109375 62.003906 -11.625 C 63.457031 -11.140625 62.972656 -10.65625 61.035156 -10.65625 Z M 72.175781 -15.5 C 68.785156 -13.5625 66.363281 -13.5625 67.816406 -15.5 C 68.300781 -16.46875 69.753906 -16.953125 71.691406 -16.953125 C 74.113281 -16.953125 74.113281 -16.953125 72.175781 -15.5 Z M 77.503906 -28.578125 C 70.722656 -23.734375 65.878906 -20.828125 62.003906 -19.859375 C 61.035156 -19.859375 57.644531 -18.890625 54.253906 -17.4375 C 50.378906 -16.46875 44.5625 -15.5 41.171875 -15.5 C 36.8125 -15.984375 38.265625 -16.46875 46.5 -18.40625 C 58.613281 -20.34375 67.332031 -24.21875 72.660156 -29.0625 C 76.535156 -32.453125 91.550781 -41.171875 93.488281 -41.171875 C 93.972656 -41.171875 93.003906 -39.71875 91.066406 -37.78125 C 89.128906 -35.84375 86.707031 -34.390625 86.222656 -34.390625 C 85.738281 -34.390625 81.863281 -31.96875 77.503906 -28.578125 Z M 259.636719 -314.855469 C 258.667969 -314.855469 257.699219 -311.949219 257.699219 -309.042969 C 257.214844 -299.839844 255.761719 -291.121094 251.886719 -276.105469 C 249.949219 -267.871094 248.496094 -260.121094 248.980469 -258.667969 C 249.464844 -256.730469 248.980469 -254.792969 247.527344 -254.308594 C 246.074219 -253.824219 245.105469 -251.886719 245.105469 -249.464844 L 245.105469 -245.589844 L 247.042969 -249.949219 C 248.980469 -254.792969 250.917969 -253.824219 249.464844 -248.496094 C 248.980469 -246.558594 247.042969 -244.621094 244.621094 -244.136719 C 242.683594 -243.167969 241.714844 -242.683594 243.167969 -242.199219 C 244.136719 -241.714844 244.621094 -240.257812 243.652344 -238.320312 C 238.804688 -229.117188 232.992188 -215.554688 230.085938 -206.351562 C 227.179688 -197.148438 219.914062 -181.648438 209.742188 -162.273438 C 207.804688 -158.882812 205.382812 -153.554688 204.414062 -151.617188 C 203.445312 -149.195312 201.023438 -144.835938 199.570312 -141.925781 C 197.632812 -138.535156 196.179688 -136.113281 196.664062 -136.113281 C 197.148438 -136.113281 193.273438 -129.332031 187.945312 -121.582031 C 183.101562 -113.347656 176.804688 -103.175781 174.382812 -98.816406 C 170.507812 -92.035156 155.492188 -71.691406 150.164062 -65.394531 C 149.195312 -63.941406 148.226562 -62.972656 148.226562 -62.488281 C 148.226562 -59.582031 121.582031 -35.359375 110.925781 -28.578125 C 99.785156 -20.828125 93.972656 -18.890625 96.394531 -22.28125 C 96.878906 -23.25 98.332031 -24.21875 99.785156 -24.21875 C 101.722656 -24.21875 128.363281 -49.410156 131.269531 -54.253906 C 131.753906 -55.707031 133.207031 -56.191406 134.175781 -55.707031 C 135.144531 -55.222656 139.019531 -59.582031 142.894531 -64.910156 C 147.257812 -70.722656 151.132812 -75.082031 151.617188 -75.082031 C 152.585938 -75.082031 153.554688 -76.535156 154.523438 -78.957031 C 155.492188 -80.894531 160.335938 -88.160156 165.179688 -94.457031 C 170.023438 -101.238281 176.804688 -111.894531 180.195312 -118.191406 C 183.101562 -124.972656 186.492188 -131.269531 187.460938 -132.238281 C 190.851562 -136.597656 217.976562 -190.851562 222.335938 -202.476562 C 224.757812 -209.257812 228.148438 -217.492188 229.117188 -220.398438 C 230.085938 -223.304688 232.992188 -231.054688 234.929688 -237.835938 C 237.351562 -245.105469 240.257812 -255.277344 242.199219 -260.121094 C 246.074219 -273.683594 250.433594 -293.058594 249.464844 -294.027344 C 248.980469 -294.511719 249.464844 -295.480469 250.433594 -296.933594 C 251.402344 -297.902344 252.855469 -303.230469 253.339844 -308.558594 C 253.824219 -313.886719 254.308594 -317.761719 255.277344 -317.761719 C 257.214844 -317.761719 261.574219 -314.855469 259.636719 -314.855469 Z M 258.667969 -318.730469 C 257.699219 -318.246094 257.214844 -319.699219 257.214844 -322.121094 C 257.214844 -324.542969 257.699219 -326.480469 258.667969 -327.449219 C 259.636719 -327.933594 260.605469 -326.480469 260.605469 -324.058594 C 260.605469 -321.636719 259.636719 -319.699219 258.667969 -318.730469 Z M 260.605469 -334.230469 C 259.636719 -333.261719 258.667969 -333.746094 258.667969 -334.714844 C 258.667969 -335.683594 259.636719 -336.652344 260.605469 -336.652344 C 261.574219 -336.652344 262.058594 -336.167969 262.058594 -335.683594 C 262.058594 -335.683594 261.574219 -334.714844 260.605469 -334.230469 Z M 280.949219 -467.441406 C 279.980469 -467.441406 279.011719 -468.410156 278.042969 -468.894531 C 277.558594 -469.863281 278.527344 -470.832031 279.980469 -470.832031 C 281.433594 -470.832031 282.402344 -469.863281 282.402344 -468.894531 C 282.402344 -468.410156 281.917969 -467.441406 280.949219 -467.441406 Z M 305.167969 -470.832031 C 301.292969 -470.347656 296.933594 -470.347656 294.511719 -469.863281 C 292.089844 -469.863281 289.183594 -469.378906 288.214844 -468.410156 C 287.246094 -467.925781 285.792969 -467.925781 285.308594 -468.894531 C 284.339844 -470.347656 287.730469 -471.316406 303.230469 -473.253906 C 309.042969 -474.222656 311.464844 -473.738281 311.464844 -472.769531 C 311.464844 -471.800781 308.558594 -470.832031 305.167969 -470.832031 Z M 371.046875 -476.160156 C 358.453125 -474.222656 310.011719 -472.769531 319.214844 -474.222656 C 322.605469 -474.707031 338.109375 -476.160156 353.125 -476.644531 C 369.59375 -477.128906 376.375 -476.644531 371.046875 -476.160156 Z M 388.96875 -476.160156 C 385.578125 -476.160156 382.671875 -476.160156 382.671875 -476.644531 C 382.671875 -478.097656 388.96875 -478.582031 392.359375 -477.613281 C 394.78125 -476.644531 393.8125 -476.160156 388.96875 -476.160156 Z M 414.15625 -477.613281 C 413.671875 -476.644531 412.703125 -476.160156 411.734375 -476.160156 C 410.765625 -476.160156 409.796875 -476.644531 409.3125 -477.613281 C 408.34375 -478.582031 409.796875 -479.066406 411.734375 -479.066406 C 413.671875 -479.066406 414.640625 -478.582031 414.15625 -477.613281 Z M 419.484375 -476.160156 C 418.03125 -476.160156 416.578125 -476.644531 416.578125 -477.613281 C 416.578125 -478.582031 418.03125 -479.066406 419.484375 -479.066406 C 420.9375 -479.066406 421.90625 -478.582031 421.90625 -477.613281 C 421.90625 -476.644531 420.9375 -476.160156 419.484375 -476.160156 Z M 426.265625 -477.128906 C 424.8125 -476.644531 423.359375 -476.644531 423.359375 -477.613281 C 423.359375 -478.582031 424.8125 -479.066406 426.265625 -479.066406 C 427.71875 -479.066406 428.6875 -479.066406 428.6875 -478.582031 C 428.6875 -478.097656 427.71875 -477.613281 426.265625 -477.128906 Z M 444.675781 -477.613281 C 444.191406 -476.644531 441.769531 -476.160156 439.832031 -476.160156 C 437.410156 -476.160156 435.472656 -476.644531 435.472656 -477.613281 C 435.472656 -478.582031 437.894531 -479.066406 440.800781 -479.066406 C 443.707031 -479.066406 445.644531 -478.582031 444.675781 -477.613281 Z M 375.890625 -486.816406 C 378.3125 -487.300781 394.78125 -487.785156 412.703125 -487.785156 C 441.285156 -488.269531 442.738281 -488.269531 428.6875 -489.722656 C 403.015625 -491.175781 316.308594 -488.269531 313.402344 -485.363281 C 312.433594 -484.394531 365.71875 -485.847656 375.890625 -486.816406 Z M 303.714844 -493.113281 C 308.558594 -493.113281 311.464844 -492.144531 311.464844 -490.691406 C 311.464844 -489.238281 311.949219 -489.238281 312.433594 -490.691406 C 313.402344 -493.113281 323.089844 -493.597656 323.089844 -491.175781 C 323.089844 -490.691406 325.027344 -490.207031 326.964844 -490.691406 C 328.417969 -491.175781 329.871094 -492.628906 329.871094 -494.082031 C 329.871094 -496.503906 327.449219 -496.503906 313.886719 -495.535156 C 296.449219 -494.566406 290.152344 -493.113281 303.714844 -493.113281 Z M 289.183594 -489.238281 C 287.730469 -488.269531 291.121094 -487.785156 298.871094 -487.785156 C 312.917969 -487.785156 311.464844 -490.691406 296.933594 -491.660156 C 291.121094 -492.144531 287.730469 -492.144531 289.183594 -491.660156 C 291.121094 -491.175781 291.121094 -490.691406 289.183594 -489.238281 Z M 283.855469 -488.269531 C 285.308594 -490.207031 284.339844 -490.691406 279.980469 -490.691406 C 272.230469 -491.175781 269.808594 -490.207031 272.714844 -486.816406 C 274.652344 -483.910156 279.980469 -484.878906 283.855469 -488.269531 Z M 275.621094 -489.722656 C 276.589844 -489.722656 277.558594 -489.238281 277.558594 -488.753906 C 277.558594 -488.269531 276.589844 -487.300781 275.621094 -486.816406 C 274.652344 -486.332031 274.167969 -486.816406 274.167969 -487.785156 C 274.167969 -488.753906 274.652344 -489.722656 275.621094 -489.722656 Z M 275.621094 -489.722656 "/></g></g></g></svg>