<svg xmlns="http://www.w3.org/2000/svg" version="1.1" xmlns:xlink="http://www.w3.org/1999/xlink" xmlns:svgjs="http://svgjs.com/svgjs" width="512" height="512" x="0" y="0" viewBox="0 0 1550 1550" style="enable-background:new 0 0 512 512" xml:space="preserve" class=""><g><g xmlns="http://www.w3.org/2000/svg"><g><g><g><g><g><path d="m957.3 1087.1h-604.9c-11.6 0-21-9.4-21-21s9.4-21 21-21h604.9c11.6 0 21 9.4 21 21s-9.5 21-21 21z" fill="#000000" data-original="#000000" class=""></path></g><g><path d="m138.4 722c-11.6 0-21-9.4-21-21v-391.6c0-41.1 33.5-74.6 74.6-74.6h1060.3c41.1 0 74.6 33.5 74.6 74.6v239c0 11.6-9.4 21-21 21s-21-9.4-21-21v-239c0-18-14.6-32.6-32.6-32.6h-1060.3c-18 0-32.6 14.6-32.6 32.6v391.6c0 11.6-9.4 21-21 21z" fill="#000000" data-original="#000000" class=""></path></g><g><path d="m957.3 908.2h-604.9c-11.6 0-21-9.4-21-21s9.4-21 21-21h604.9c11.6 0 21 9.4 21 21s-9.5 21-21 21z" fill="#000000" data-original="#000000" class=""></path></g><g><circle cx="722.1" cy="976.6" r="25.9" fill="#000000" data-original="#000000" class=""></circle></g></g><g><g><path d="m636.1 1201.7c-11.6 0-21-9.4-21-21v-114.6c0-11.6 9.4-21 21-21s21 9.4 21 21v114.6c0 11.6-9.4 21-21 21z" fill="#000000" data-original="#000000" class=""></path></g><g><path d="m808.2 1201.7c-11.6 0-21-9.4-21-21v-114.6c0-11.6 9.4-21 21-21s21 9.4 21 21v114.6c0 11.6-9.4 21-21 21z" fill="#000000" data-original="#000000" class=""></path></g></g><g><path d="m977.3 1315.1h-557.4c-11.6 0-21-9.4-21-21v-13.4c0-63.3 51.5-114.8 114.8-114.8h417c11.1 0 22.1 1.6 32.6 4.7 11.1 3.3 17.5 15 14.2 26.1s-15 17.5-26.1 14.2c-6.7-2-13.6-3-20.7-3h-417c-37.6 0-68.6 28.6-72.4 65.2h536c11.6 0 21 9.4 21 21s-9.4 21-21 21z" fill="#000000" data-original="#000000" class=""></path></g></g></g></g><g><g><g><g><g><path d="m336.5 1315.1h-289.6c-20.4 0-36.9-16.6-36.9-36.9v-561.3c0-20.4 16.6-36.9 36.9-36.9h289.5c20.4 0 36.9 16.6 36.9 36.9v561.2c.1 20.5-16.5 37-36.8 37zm-284.5-42h279.4v-551.1h-279.4z" fill="#000000" data-original="#000000" class=""></path></g><g><g><path d="m352.4 808.5h-321.4c-11.6 0-21-9.4-21-21s9.4-21 21-21h321.4c11.6 0 21 9.4 21 21s-9.4 21-21 21z" fill="#000000" data-original="#000000" class=""></path></g><g><path d="m352.4 1228.6h-321.4c-11.6 0-21-9.4-21-21s9.4-21 21-21h321.4c11.6 0 21 9.4 21 21s-9.4 21-21 21z" fill="#000000" data-original="#000000" class=""></path></g></g></g></g></g></g><g><g><path d="m1499 1315.1h-521.7c-22.6 0-41-18.4-41-41v-705.6c0-22.6 18.4-41 41-41h521.7c22.6 0 41 18.4 41 41v705.6c0 22.6-18.4 41-41 41zm-520.7-42h519.7v-703.7h-519.8v703.7z" fill="#000000" data-original="#000000" class=""></path></g><g><path d="m1449 1204h-421.8c-11.6 0-21-9.4-21-21v-564.6c0-11.6 9.4-21 21-21h421.8c11.6 0 21 9.4 21 21v564.6c0 11.6-9.4 21-21 21zm-400.7-42h379.7v-522.6h-379.8v522.6z" fill="#000000" data-original="#000000" class=""></path></g><g><circle cx="1238.1" cy="1238.6" r="19.9" fill="#000000" data-original="#000000" class=""></circle></g></g></g></g></svg>